<?xml version="1.0" encoding="utf-8"?>
<!-- Generator: Adobe Illustrator 22.0.1, SVG Export Plug-In . SVG Version: 6.00 Build 0)  -->
<svg version="1.1" id="Isolation_Mode" xmlns="http://www.w3.org/2000/svg" xmlns:xlink="http://www.w3.org/1999/xlink" x="0px"
	 y="0px" viewBox="0 0 400 400" style="enable-background:new 0 0 400 400;" xml:space="preserve">
<style type="text/css">
	.st0{opacity:0.4;}
	.st1{fill:#FFFFFF;}
	.st2{opacity:0.2;fill:#FFFFFF;}
	.st3{fill:#F4767A;}
	.st4{fill:#ED5561;}
	.st5{fill:#BBCEE1;}
	.st6{fill:#D8395A;}
	.st7{opacity:0.45;fill:#D8D8D8;}
	.st8{fill:#933E31;}
	.st9{fill:#1C75BC;}
	.st10{fill:#9D4D36;}
	.st11{fill:#A7BCCE;}
	.st12{fill:#2A87C6;}
	.st13{fill:#E8EBF5;}
	.st14{fill:#0F4463;}
	.st15{fill:#0B3B56;}
	.st16{fill:#1F5E77;}
	.st17{fill:#07304B;}
	.st18{fill:url(#SVGID_1_);}
	.st19{fill:#FED4BD;}
	.st20{fill:#F4C5A2;}
	.st21{fill:#DE495A;}
	.st22{fill:#EF4136;}
	.st23{fill:#91A6B7;}
	.st24{fill:#79FF68;}
	.st25{fill:#50E85E;}
	.st26{fill:#3CC743;}
	.st27{fill:#9263C1;}
	.st28{fill:#8444B2;}
	.st29{fill:#7231A3;}
	.st30{fill:#FFA8E1;}
	.st31{fill:#FF7AD2;}
	.st32{fill:#DE64C6;}
	.st33{fill:#FCEC32;}
	.st34{fill:#F5D012;}
	.st35{fill:#EAA10C;}
	.st36{fill:#EDF0F8;}
	.st37{opacity:0.45;}
	.st38{fill:#D8D8D8;}
	.st39{fill:#F0CEC9;}
	.st40{fill:#FFFBF0;}
	.st41{fill:#F5DDD8;}
	.st42{fill:#DFBAB8;}
</style>
<g>
	<g class="st0">
		<g>
			<polygon class="st1" points="193.2,64.3 193.2,66 200.1,70 200.1,68.3 			"/>
			<polygon class="st1" points="193.2,67.3 193.2,69 200.1,73 200.1,71.3 			"/>
			<polygon class="st1" points="193.2,70.3 193.2,72 200.1,76 200.1,74.3 			"/>
			<polygon class="st1" points="245.5,105.2 245.5,103.5 202.7,78.8 202.7,80.5 			"/>
			<polygon class="st1" points="193.2,73.4 193.2,75 200.1,79 200.1,77.3 			"/>
			<polygon class="st1" points="193.2,76.4 193.2,78 200.1,82 200.1,80.4 			"/>
			<polygon class="st1" points="245.5,108.2 245.5,106.5 202.7,81.9 202.7,83.5 			"/>
			<polygon class="st1" points="193.2,85.4 193.2,87.1 200.1,91 200.1,89.4 			"/>
			<polygon class="st1" points="193.2,88.4 193.2,90.1 200.1,94.1 200.1,92.4 			"/>
			<polygon class="st1" points="193.2,100.5 193.2,102.1 200.1,106.1 200.1,104.5 			"/>
			<polygon class="st1" points="193.2,103.5 193.2,105.1 200.1,109.1 200.1,107.5 			"/>
			<g>
				<polygon class="st1" points="229.7,124.5 202.7,109 202.7,110.6 229.7,126.2 				"/>
				<polygon class="st1" points="231.1,125.3 231.1,127 245.5,135.3 245.5,133.6 				"/>
			</g>
			<g>
				<polygon class="st1" points="216.3,113.8 202.7,106 202.7,107.6 216.3,115.4 				"/>
				<polygon class="st1" points="217.7,114.6 217.7,116.2 245.5,132.3 245.5,130.6 				"/>
			</g>
			<polygon class="st1" points="241.8,119.5 241.8,121.1 245.5,123.2 245.5,121.6 			"/>
			<polygon class="st1" points="221.9,105 202.7,93.9 202.7,95.6 221.9,106.6 			"/>
			<polygon class="st1" points="214.1,76.4 202.7,69.8 202.7,71.5 214.1,78 			"/>
			<g>
				<polygon class="st1" points="232.6,87.1 215.5,77.2 215.5,78.8 232.6,88.7 				"/>
			</g>
			<polygon class="st1" points="222.6,84.3 210.6,77.3 210.6,79 222.6,86 			"/>
			<g>
				<polygon class="st1" points="235.3,91.6 224.1,85.1 224.1,86.8 235.3,93.3 				"/>
				<polygon class="st1" points="236.7,92.4 236.7,94.1 245.5,99.1 245.5,97.5 				"/>
			</g>
			<polygon class="st1" points="205,77.1 205,78.8 214.1,84 214.1,82.4 			"/>
			<polygon class="st1" points="241.9,98.4 215.5,83.2 215.5,84.8 241.9,100.1 			"/>
			<polygon class="st1" points="226.8,98.7 209.5,88.8 209.5,90.4 226.8,100.4 			"/>
			<polygon class="st1" points="241.9,107.5 228.2,99.6 228.2,101.2 241.9,109.1 			"/>
			<g>
				<polygon class="st1" points="240.4,115.6 223.4,105.8 223.4,107.5 240.4,117.3 				"/>
			</g>
			<polygon class="st1" points="231.1,113.3 231.1,114.9 240.4,120.3 240.4,118.7 			"/>
			<polygon class="st1" points="206.1,98.9 202.7,96.9 202.7,98.6 206.1,100.5 			"/>
			<g>
				<polygon class="st1" points="212.3,102.5 212.3,104.1 229.7,114.1 229.7,112.5 				"/>
				<polygon class="st1" points="210.9,101.6 207.5,99.7 207.5,101.3 210.9,103.3 				"/>
			</g>
			<polygon class="st1" points="226.5,113.6 207.5,102.7 207.5,104.3 226.5,115.3 			"/>
		</g>
	</g>
	<g class="st0">
		<polygon class="st1" points="230.1,37 201.4,20.4 201.4,21.9 230.1,38.5 		"/>
		<polygon class="st1" points="201.4,24.7 245.5,50.2 245.5,48.8 201.4,23.3 		"/>
		<polygon class="st1" points="232.1,38.1 232.1,39.6 245.5,47.3 245.5,45.9 		"/>
		<polygon class="st1" points="230.1,42.6 201.4,26 201.4,27.5 230.1,44.1 		"/>
		<polygon class="st1" points="201.4,30.3 245.5,55.8 245.5,54.4 201.4,28.9 		"/>
		<polygon class="st1" points="232.1,45.2 245.5,52.9 245.5,51.5 232.1,43.7 		"/>
		<polygon class="st1" points="230.1,51.9 201.4,35.2 201.4,36.7 230.1,53.3 		"/>
		<polygon class="st1" points="201.4,39.6 245.5,65.1 245.5,63.6 201.4,38.1 		"/>
		<polygon class="st1" points="232.1,54.4 245.5,62.2 245.5,60.7 232.1,53 		"/>
		<polygon class="st1" points="230.1,57.5 201.4,40.8 201.4,42.3 230.1,58.9 		"/>
		<polygon class="st1" points="201.4,45.2 245.5,70.7 245.5,69.2 201.4,43.7 		"/>
		<polygon class="st1" points="232.1,60 245.5,67.8 245.5,66.3 232.1,58.6 		"/>
		<polygon class="st1" points="230.1,66.7 201.4,50.1 201.4,51.5 230.1,68.2 		"/>
		<polygon class="st1" points="201.4,54.4 245.5,79.9 245.5,78.4 201.4,52.9 		"/>
		<polygon class="st1" points="232.1,69.3 245.5,77 245.5,75.6 232.1,67.8 		"/>
		<polygon class="st1" points="230.1,72.3 201.4,55.7 201.4,57.1 230.1,73.8 		"/>
		<polygon class="st1" points="201.4,60 245.5,85.5 245.5,84 201.4,58.5 		"/>
		<polygon class="st1" points="232.1,74.9 245.5,82.6 245.5,81.2 232.1,73.4 		"/>
	</g>
	<path class="st2" d="M152.6,58l-21.5-12.4c-1-0.6-2.4,0.2-2.4,1.4v25.7c0,1.3,0.7,2.4,1.8,3L152,88.1c1.1,0.6,2.4-0.2,2.4-1.4V61.1
		C154.4,59.8,153.8,58.6,152.6,58z"/>
	<g>
		<g>
			<g>
				<path class="st3" d="M143.1,79.7L115,63.4c-0.9-0.5-1.8-0.5-2.8,0.1l0,0l-6.2,3.6l2.9,3.9l1.1,1.2v27.9c0,1.7,0.9,3.2,2.3,4
					l21.1,12.2l0.2,1.2l4.3,6l6.6-3.9c0,0,0,0,0,0l0,0v0c0.6-0.4,1-1,1-1.8V83.8C145.5,82.1,144.6,80.5,143.1,79.7z"/>
				<path class="st4" d="M136.5,83.5l-28.5-16.4c-1.4-0.8-3.1,0.2-3.1,1.8V103c0,1.7,0.9,3.2,2.3,4l28.5,16.5
					c1.4,0.8,3.2-0.2,3.2-1.9V87.7C138.9,86,138,84.4,136.5,83.5z"/>
			</g>
		</g>
		<g>
			<path class="st5" d="M137.9,123.5L137.9,123.5L137.9,123.5C137.8,123.5,137.8,123.5,137.9,123.5z"/>
			<path class="st6" d="M138.9,121.6V87.7c0-0.6-0.1-1.1-0.3-1.6l6.6-3.8c0.2,0.5,0.3,1,0.3,1.6v33.9c0,0.8-0.4,1.4-1,1.8v0l0,0
				c0,0,0,0,0,0l-6.6,3.9C138.5,123.1,138.9,122.4,138.9,121.6z"/>
		</g>
	</g>
	<g>
		<path class="st1" d="M111.7,83.4l-3.5-2l0,12.5l2.3,1.3l0-4.4l1,0.6c1.3,0.8,2.4,1,3.1,0.7c0.7-0.3,1.1-1.1,1.1-2.4
			c0-1.3-0.3-2.5-1-3.5C114,85.1,113,84.2,111.7,83.4z M112.9,89.5c-0.3,0.1-0.9,0-1.6-0.4l-0.8-0.4l0-3.7l1,0.6
			c0.6,0.4,1.1,0.8,1.4,1.2c0.3,0.5,0.4,1,0.4,1.6C113.4,89,113.2,89.4,112.9,89.5z"/>
		<polygon class="st1" points="123.8,95.3 119.5,92.8 119.5,87.9 117.2,86.6 117.1,99 119.4,100.3 119.5,95 123.8,97.4 123.7,102.8 
			126,104.1 126.1,91.7 123.8,90.4 		"/>
		<path class="st1" d="M134.6,97.6c-0.7-1-1.7-1.9-3-2.7l-3.5-2l0,12.5l2.3,1.3l0-4.4l1,0.6c1.3,0.8,2.4,1,3.1,0.7
			c0.7-0.3,1.1-1.1,1.1-2.4C135.7,99.8,135.3,98.7,134.6,97.6z M132.8,101c-0.3,0.1-0.9,0-1.6-0.4l-0.8-0.4l0-3.7l1,0.6
			c0.6,0.4,1.1,0.8,1.4,1.2c0.3,0.5,0.4,1,0.4,1.6C133.3,100.5,133.2,100.9,132.8,101z"/>
	</g>
	<g class="st0">
		<g>
			<polygon class="st1" points="76.7,80.9 76.7,82.6 83.6,86.6 83.6,84.9 			"/>
			<polygon class="st1" points="76.7,83.9 76.7,85.6 83.6,89.6 83.6,87.9 			"/>
			<polygon class="st1" points="76.7,87 76.7,88.6 83.6,92.6 83.6,90.9 			"/>
			<polygon class="st1" points="129,121.8 129,120.1 86.2,95.5 86.2,97.1 			"/>
			<polygon class="st1" points="76.7,90 76.7,91.6 83.6,95.6 83.6,94 			"/>
			<polygon class="st1" points="76.7,93 76.7,94.6 83.6,98.6 83.6,97 			"/>
			<polygon class="st1" points="129,124.8 129,123.1 86.2,98.5 86.2,100.1 			"/>
			<polygon class="st1" points="76.7,102 76.7,103.7 83.6,107.7 83.6,106 			"/>
			<polygon class="st1" points="76.7,105 76.7,106.7 83.6,110.7 83.6,109 			"/>
			<polygon class="st1" points="76.7,117.1 76.7,118.7 83.6,122.7 83.6,121.1 			"/>
			<polygon class="st1" points="76.7,120.1 76.7,121.7 83.6,125.7 83.6,124.1 			"/>
			<g>
				<polygon class="st1" points="113.2,141.1 86.2,125.6 86.2,127.2 113.2,142.8 				"/>
				<polygon class="st1" points="114.6,142 114.6,143.6 129,151.9 129,150.2 				"/>
			</g>
			<g>
				<polygon class="st1" points="99.8,130.4 86.2,122.6 86.2,124.2 99.8,132 				"/>
				<polygon class="st1" points="101.2,131.2 101.2,132.9 129,148.9 129,147.2 				"/>
			</g>
			<polygon class="st1" points="125.3,136.1 125.3,137.7 129,139.8 129,138.2 			"/>
			<polygon class="st1" points="105.4,121.6 86.2,110.5 86.2,112.2 105.4,123.2 			"/>
			<polygon class="st1" points="97.5,93 86.2,86.4 86.2,88.1 97.5,94.6 			"/>
			<g>
				<polygon class="st1" points="116.1,103.7 99,93.8 99,95.4 116.1,105.3 				"/>
			</g>
			<polygon class="st1" points="106.1,100.9 94,94 94,95.6 106.1,102.6 			"/>
			<g>
				<polygon class="st1" points="118.8,108.2 107.5,101.7 107.5,103.4 118.8,109.9 				"/>
				<polygon class="st1" points="120.2,109.1 120.2,110.7 129,115.7 129,114.1 				"/>
			</g>
			<polygon class="st1" points="88.4,93.7 88.4,95.4 97.5,100.6 97.5,99 			"/>
			<polygon class="st1" points="125.4,115.1 99,99.8 99,101.5 125.4,116.7 			"/>
			<polygon class="st1" points="110.3,115.4 93,105.4 93,107 110.3,117 			"/>
			<polygon class="st1" points="125.4,124.1 111.7,116.2 111.7,117.8 125.4,125.7 			"/>
			<g>
				<polygon class="st1" points="123.9,132.3 106.8,122.4 106.8,124.1 123.9,133.9 				"/>
			</g>
			<polygon class="st1" points="114.6,129.9 114.6,131.6 123.9,136.9 123.9,135.3 			"/>
			<polygon class="st1" points="89.5,115.5 86.2,113.5 86.2,115.2 89.5,117.1 			"/>
			<g>
				<polygon class="st1" points="95.8,119.1 95.8,120.7 113.2,130.7 113.2,129.1 				"/>
				<polygon class="st1" points="94.4,118.3 91,116.3 91,117.9 94.4,119.9 				"/>
			</g>
			<polygon class="st1" points="110,130.2 91,119.3 91,120.9 110,131.9 			"/>
		</g>
	</g>
	<path class="st7" d="M283.2,102.4L261.8,90c-1-0.6-2.4,0.2-2.4,1.4V117c0,1.3,0.7,2.4,1.8,3l21.5,12.4c1.1,0.6,2.4-0.2,2.4-1.4
		v-25.6C285.1,104.2,284.4,103,283.2,102.4z"/>
	<path class="st7" d="M312.6,52.7l-21.5-12.4c-1-0.6-2.4,0.2-2.4,1.4v25.7c0,1.3,0.7,2.4,1.8,3l21.5,12.4c1.1,0.6,2.4-0.2,2.4-1.4
		V55.8C314.4,54.6,313.7,53.4,312.6,52.7z"/>
	<path class="st7" d="M378.8,187l-21.5-12.4c-1-0.6-2.4,0.2-2.4,1.4v25.7c0,1.3,0.7,2.4,1.7,3l21.5,12.4c1.1,0.6,2.4-0.2,2.4-1.4
		v-25.6C380.6,188.9,379.9,187.7,378.8,187z"/>
	<path class="st7" d="M192,123.8l-21.5-12.4c-1-0.6-2.4,0.2-2.4,1.4v25.7c0,1.3,0.7,2.4,1.8,3l21.5,12.4c1.1,0.6,2.4-0.2,2.4-1.4
		l0-25.6C193.8,125.7,193.2,124.5,192,123.8z"/>
	<path class="st8" d="M111.3,334.9c-5.7,0.1-3.8-4.3-3.8-4.3c-8.5-2.6-12.6-1.1-12.6-1.1c-2.1,7.5-1.3,12-1.3,13.8
		c0,0.9,0.6,1.4,1.5,1.7c4.5,1.7,8.7,2.8,17.2,2c6.2-0.6,12.8-6.4,11.3-12.3C122.5,331,117,334.9,111.3,334.9z"/>
	<path class="st9" d="M108.8,281.4c-1.7-2.2-4.5-4-9.3-2.8l-50.9,9.8l1.9,13.1c0,0,7.8,10.3,21.5,6.4c13.7-3.9,22.5-10.3,22.5-10.3
		l-1.7,36.1c0,0,8,2.5,15.1-1.8c1.2-0.7,2.3-35.5,2.7-44.5C110.6,284.9,110.3,283.3,108.8,281.4z"/>
	<path class="st10" d="M135.7,345.3c-5.9,0.1-4-4.4-4-4.4c-8.8-2.7-13.1-1.2-13.1-1.2c-2.2,7.7-1.3,12.4-1.4,14.3
		c0,0.9,0.6,1.5,1.5,1.8c4.7,1.8,9,2.9,17.8,2.1c6.5-0.6,13.3-6.6,11.8-12.8C147.4,341.3,141.7,345.3,135.7,345.3z"/>
	<g>
		<polygon class="st5" points="77.8,331 34.1,305.7 34.1,311.9 77.8,337.1 		"/>
		<polygon class="st1" points="73.8,282.9 34.1,305.7 77.8,331 117.6,308.1 		"/>
		<polygon class="st11" points="117.6,308.1 77.8,331 77.8,337.1 117.6,314.1 		"/>
	</g>
	<path class="st12" d="M133.2,289.7c-1.7-2.3-4.7-4.2-9.6-2.9l-52.9,10.2l2,13.6c0,0,8.1,10.7,22.3,6.6
		c14.2-4.1,23.4-10.7,23.4-10.7l-1.8,37.5c0,0,8.3,2.6,15.7-1.9c1.2-0.7,2.4-36.9,2.8-46.2C135.1,293.5,134.7,291.8,133.2,289.7z"/>
	<g>
		<path class="st13" d="M38.7,213.2l90.3-52.4c3.8-2.2,8.5-2.2,12.4,0l142.3,82.3c3.6,2.1,3.6,7.3,0,9.4l-88.3,51.3
			c-4.5,2.6-10.2,2.6-14.7,0L38.7,221.7C35.4,219.8,35.4,215.1,38.7,213.2z"/>
		<path class="st11" d="M38.7,221.7l141.9,82.1c4.6,2.6,10.2,2.6,14.7,0l88.3-51.3c1.8-1,2.7-2.9,2.7-4.7v6.7c0,0,0,0,0,0.1v0.1l0,0
			c0,1.8-0.9,3.6-2.7,4.6l-88.3,51.3c-4.5,2.6-10.2,2.6-14.7,0L38.7,228.5c-1.6-0.9-2.4-2.6-2.4-4.3h0v-6.7
			C36.2,219.1,37.1,220.8,38.7,221.7z"/>
		<path class="st5" d="M38.7,221.7l141.9,82.1c2.1,1.2,4.4,1.8,6.7,1.9v6.8c-2.3-0.1-4.6-0.7-6.7-1.9L38.7,228.5
			c-1.6-0.9-2.4-2.6-2.4-4.3h0v-6.7C36.2,219.1,37.1,220.8,38.7,221.7z"/>
	</g>
	<g>
		<g>
			<g>
				<path class="st14" d="M105.4,232.2l15.3-8.9c0.7-0.4,1.6-0.4,2.3,0l47.3,27.4c0.7,0.4,0.7,1.4,0,1.8l-14.9,8.6
					c-0.9,0.5-1.9,0.5-2.8,0l-47.3-27.3C104.8,233.4,104.8,232.6,105.4,232.2z"/>
				<path class="st15" d="M105.4,233.8l47.3,27.3c0.9,0.5,1.9,0.5,2.8,0l14.9-8.6c0.3-0.2,0.5-0.5,0.5-0.9v1.8c0,0,0,0,0,0v0h0
					c0,0.3-0.2,0.7-0.5,0.9l-14.9,8.6c-0.9,0.5-1.9,0.5-2.8,0l-47.3-27.3c-0.3-0.2-0.5-0.5-0.5-0.8l0,0V233
					C104.9,233.3,105.1,233.6,105.4,233.8z"/>
			</g>
			<g>
				<polygon class="st16" points="120.5,225.8 122.5,224.7 124.6,226 122.7,227.1 				"/>
				<polygon class="st16" points="123.3,227.4 125.2,226.3 127.4,227.5 125.4,228.6 				"/>
				<polygon class="st16" points="126,229 127.9,227.8 130.1,229.1 128.2,230.2 				"/>
				<polygon class="st16" points="128.7,230.5 130.6,229.4 132.8,230.7 130.9,231.8 				"/>
				<polygon class="st16" points="131.4,232.1 133.3,231 135.5,232.2 133.6,233.3 				"/>
				<polygon class="st16" points="134.1,233.6 136.1,232.5 138.2,233.8 136.3,234.9 				"/>
				<polygon class="st16" points="136.9,235.2 138.8,234.1 141,235.4 139,236.5 				"/>
				<polygon class="st16" points="139.6,236.8 141.5,235.7 143.7,236.9 141.8,238 				"/>
				<polygon class="st16" points="142.3,238.3 144.2,237.2 146.4,238.5 144.5,239.6 				"/>
				<polygon class="st16" points="145,239.9 146.9,238.8 149.1,240.1 147.2,241.2 				"/>
				<polygon class="st16" points="147.7,241.5 149.7,240.4 151.8,241.6 149.9,242.7 				"/>
				<polygon class="st16" points="150.5,243 152.4,241.9 154.6,243.2 152.7,244.3 				"/>
				<polygon class="st16" points="155.1,243.5 157.3,244.8 155.4,245.9 153.2,244.6 				"/>
				<polygon class="st16" points="120.2,228.5 118.1,227.3 120,226.1 122.2,227.4 				"/>
				<polygon class="st16" points="124.9,229 123,230.1 120.8,228.8 122.7,227.7 				"/>
				<polygon class="st16" points="127.6,230.5 125.7,231.6 123.5,230.4 125.4,229.3 				"/>
				<polygon class="st16" points="130.3,232.1 128.4,233.2 126.2,232 128.1,230.8 				"/>
				<polygon class="st16" points="133,233.7 131.1,234.8 128.9,233.5 130.9,232.4 				"/>
				<polygon class="st16" points="135.8,235.2 133.8,236.3 131.7,235.1 133.6,234 				"/>
				<polygon class="st16" points="138.5,236.8 136.6,237.9 134.4,236.7 136.3,235.5 				"/>
				<polygon class="st16" points="141.2,238.4 139.3,239.5 137.1,238.2 139,237.1 				"/>
				<polygon class="st16" points="143.9,239.9 142,241 139.8,239.8 141.7,238.7 				"/>
				<polygon class="st16" points="146.6,241.5 144.7,242.6 142.5,241.4 144.5,240.2 				"/>
				<polygon class="st16" points="149.4,243.1 147.4,244.2 145.3,242.9 147.2,241.8 				"/>
				<polygon class="st16" points="152.1,244.6 150.2,245.7 148,244.5 149.9,243.4 				"/>
				<polygon class="st16" points="152.6,244.9 154.8,246.2 152.9,247.3 150.7,246 				"/>
				<polygon class="st16" points="117.8,230 115.6,228.7 117.5,227.6 119.7,228.8 				"/>
				<polygon class="st16" points="122.4,230.4 120.5,231.5 118.3,230.3 120.2,229.2 				"/>
				<polygon class="st16" points="121,231.8 122.9,230.7 125.1,232 123.2,233.1 				"/>
				<polygon class="st16" points="127.8,233.5 125.9,234.6 123.7,233.4 125.7,232.3 				"/>
				<polygon class="st16" points="130.6,235.1 128.6,236.2 126.5,235 128.4,233.8 				"/>
				<polygon class="st16" points="133.3,236.7 131.4,237.8 129.2,236.5 131.1,235.4 				"/>
				<polygon class="st16" points="136,238.2 134.1,239.3 131.9,238.1 133.8,237 				"/>
				<polygon class="st16" points="138.7,239.8 136.8,240.9 134.6,239.7 136.5,238.5 				"/>
				<polygon class="st16" points="141.4,241.4 139.5,242.5 137.3,241.2 139.3,240.1 				"/>
				<polygon class="st16" points="144.2,242.9 142.2,244 140.1,242.8 142,241.7 				"/>
				<polygon class="st16" points="146.9,244.5 145,245.6 142.8,244.4 144.7,243.2 				"/>
				<polygon class="st16" points="145.5,245.9 147.4,244.8 149.6,246.1 147.7,247.2 				"/>
				<polygon class="st16" points="150.1,246.4 152.3,247.6 150.4,248.7 148.2,247.5 				"/>
				<polygon class="st16" points="115.3,231.4 113.1,230.1 115,229 117.2,230.3 				"/>
				<polygon class="st16" points="115.8,231.7 117.7,230.6 119.9,231.8 118,233 				"/>
				<polygon class="st16" points="118.5,233.3 120.5,232.2 122.6,233.4 120.7,234.5 				"/>
				<polygon class="st16" points="121.3,234.8 123.2,233.7 125.4,235 123.4,236.1 				"/>
				<polygon class="st16" points="124,236.4 125.9,235.3 128.1,236.5 126.2,237.7 				"/>
				<polygon class="st16" points="126.7,238 128.6,236.9 130.8,238.1 128.9,239.2 				"/>
				<polygon class="st16" points="129.4,239.5 131.3,238.4 133.5,239.7 131.6,240.8 				"/>
				<polygon class="st16" points="132.1,241.1 134.1,240 136.2,241.2 134.3,242.4 				"/>
				<polygon class="st16" points="134.9,242.7 136.8,241.5 139,242.8 137,243.9 				"/>
				<polygon class="st16" points="137.6,244.2 139.5,243.1 141.7,244.4 139.8,245.5 				"/>
				<polygon class="st16" points="140.3,245.8 142.2,244.7 144.4,245.9 142.5,247 				"/>
				<polygon class="st16" points="143,247.4 144.9,246.2 147.1,247.5 145.2,248.6 				"/>
				<polygon class="st16" points="147.7,247.8 149.8,249.1 147.9,250.2 145.7,248.9 				"/>
				<polygon class="st16" points="112.8,232.8 110.6,231.6 112.5,230.5 114.7,231.7 				"/>
				<polygon class="st16" points="113.3,233.1 115.2,232 117.4,233.3 115.5,234.4 				"/>
				<polygon class="st16" points="116.1,234.7 118,233.6 120.2,234.9 118.2,236 				"/>
				<polygon class="st16" points="118.8,236.3 120.7,235.2 122.9,236.4 121,237.5 				"/>
				<polygon class="st16" points="121.5,237.8 123.4,236.7 125.6,238 123.7,239.1 				"/>
				<polygon class="st16" points="124.2,239.4 126.1,238.3 128.3,239.5 126.4,240.7 				"/>
				<polygon class="st16" points="126.9,241 128.9,239.9 131,241.1 129.1,242.2 				"/>
				<polygon class="st16" points="129.7,242.5 131.6,241.4 133.8,242.7 131.8,243.8 				"/>
				<polygon class="st16" points="132.4,244.1 134.3,243 136.5,244.2 134.6,245.4 				"/>
				<polygon class="st16" points="135.1,245.7 137,244.6 139.2,245.8 137.3,246.9 				"/>
				<polygon class="st16" points="137.8,247.2 139.7,246.1 141.9,247.4 140,248.5 				"/>
				<polygon class="st16" points="140.5,248.8 142.5,247.7 144.6,248.9 142.7,250.1 				"/>
				<polygon class="st16" points="145.2,249.3 147.4,250.5 145.4,251.6 143.3,250.4 				"/>
				<polygon class="st16" points="110,231.9 112.2,233.2 110.3,234.3 108.1,233 				"/>
				<polygon class="st16" points="114.9,234.7 113,235.8 110.8,234.6 112.8,233.5 				"/>
				<polygon class="st16" points="117.7,236.3 115.8,237.4 113.6,236.1 115.5,235 				"/>
				<polygon class="st16" points="120.4,237.9 118.5,239 116.3,237.7 118.2,236.6 				"/>
				<polygon class="st16" points="123.1,239.4 121.2,240.5 119,239.3 120.9,238.2 				"/>
				<polygon class="st16" points="125.8,241 123.9,242.1 121.7,240.8 123.6,239.7 				"/>
				<polygon class="st16" points="126.4,241.3 129.1,242.9 129.1,242.9 129.6,243.2 131.8,244.4 131.8,244.4 132.9,245.1 134.5,246 
					134.5,246 136.2,247 139.4,248.8 137.5,249.9 134.2,248 132.6,247.1 132.6,247.1 131,246.2 129.9,245.5 129.9,245.5 
					127.7,244.3 127.2,244 127.2,244 124.4,242.4 				"/>
				<polygon class="st16" points="142.2,250.4 140.2,251.5 138,250.2 140,249.1 				"/>
				<polygon class="st16" points="144.9,251.9 143,253.1 140.8,251.8 142.7,250.7 				"/>
			</g>
			<g>
				<polygon class="st16" points="158.6,247.7 160.5,246.6 162.7,247.9 160.8,249 				"/>
				<polygon class="st16" points="161.3,249.3 163.3,248.2 165.4,249.5 163.5,250.6 				"/>
				<polygon class="st16" points="164.1,250.9 166,249.8 168.2,251 166.3,252.1 				"/>
				<polygon class="st16" points="160.2,249.3 158.3,250.4 156.1,249.2 158.1,248.1 				"/>
				<polygon class="st16" points="163,250.9 161,252 158.9,250.7 160.8,249.6 				"/>
				<polygon class="st16" points="165.7,252.5 163.8,253.6 161.6,252.3 163.5,251.2 				"/>
				<polygon class="st16" points="157.8,250.8 155.8,251.9 153.7,250.6 155.6,249.5 				"/>
				<polygon class="st16" points="160.5,252.3 158.6,253.4 156.4,252.2 158.3,251.1 				"/>
				<polygon class="st16" points="163.2,253.9 161.3,255 159.1,253.7 161,252.6 				"/>
				<polygon class="st16" points="151.2,252.1 153.1,250.9 155.3,252.2 153.4,253.3 				"/>
				<polygon class="st16" points="153.9,253.6 155.8,252.5 158,253.8 156.1,254.9 				"/>
				<polygon class="st16" points="156.6,255.2 158.5,254.1 160.7,255.3 158.8,256.4 				"/>
				<polygon class="st16" points="148.7,253.5 150.6,252.4 152.8,253.6 150.9,254.7 				"/>
				<polygon class="st16" points="151.4,255.1 153.3,253.9 155.5,255.2 153.6,256.3 				"/>
				<polygon class="st16" points="154.1,256.6 156.1,255.5 158.2,256.8 156.3,257.9 				"/>
				<polygon class="st16" points="150.3,255.1 148.4,256.2 146.2,254.9 148.1,253.8 				"/>
				<polygon class="st16" points="153,256.6 151.1,257.8 148.9,256.5 150.9,255.4 				"/>
			</g>
		</g>
		<g>
			<path class="st16" d="M139.4,217.5l15.1-8.8c0.6-0.4,1.4-0.4,2.1,0l35.8,20.6c0.6,0.3,0.6,1.2,0,1.6l-14.7,8.6
				c-0.8,0.4-1.7,0.4-2.5,0l-35.7-20.6C138.8,218.6,138.8,217.8,139.4,217.5z"/>
			<path class="st17" d="M139.4,218.9l35.7,20.6c0.8,0.4,1.7,0.4,2.5,0l14.7-8.6c0.3-0.2,0.5-0.5,0.5-0.8v1.8c0,0,0,0,0,0v0l0,0
				c0,0.3-0.2,0.6-0.4,0.8l-14.7,8.6c-0.8,0.4-1.7,0.4-2.5,0l-35.7-20.6c-0.3-0.2-0.4-0.4-0.4-0.7l0,0v-1.8
				C139,218.5,139.1,218.7,139.4,218.9z"/>
			<path class="st15" d="M139.4,218.9l35.7,20.6c0.3,0.2,0.7,0.3,1.1,0.3v1.8c-0.4,0-0.8-0.1-1.1-0.3l-35.7-20.6
				c-0.3-0.2-0.4-0.4-0.4-0.7l0,0v-1.8C139,218.5,139.1,218.7,139.4,218.9z"/>
		</g>
		<g>
			<polygon class="st14" points="178.5,218.9 150.7,202.8 150.7,216.6 178.5,232.6 			"/>
			<polygon class="st17" points="154.6,200.6 150.7,202.8 178.5,218.9 182.4,216.6 			"/>
			<polygon class="st17" points="182.4,216.6 178.5,218.9 178.5,232.6 182.4,230.4 			"/>
		</g>
		<g>
			<g>
				<linearGradient id="SVGID_1_" gradientUnits="userSpaceOnUse" x1="153.8718" y1="224.4162" x2="180.4645" y2="136.9179">
					<stop  offset="0" style="stop-color:#1C75BC"/>
					<stop  offset="0.2787" style="stop-color:#2077BC"/>
					<stop  offset="0.5411" style="stop-color:#2B7EBC"/>
					<stop  offset="0.7962" style="stop-color:#3E88BC"/>
					<stop  offset="1" style="stop-color:#5394BC"/>
				</linearGradient>
				<polygon class="st18" points="122.6,132.7 207.1,181.7 207.1,243.9 122.6,194.7 				"/>
				<polygon class="st17" points="207.1,181.7 209.9,180 209.9,242.2 207.1,243.9 				"/>
				<polygon class="st16" points="122.6,132.7 125.5,131 209.9,180 207.1,181.7 				"/>
			</g>
			<path class="st15" d="M122.6,132.7v62l84.5,49.2l0-62.2L122.6,132.7z M205.1,240.4l-80.5-46.9v-57.4l80.5,46.7L205.1,240.4z"/>
		</g>
	</g>
	<path class="st19" d="M91.3,209.5c-0.9,8.9-7.4,15.5-14.6,14.8c-7.2-0.7-12.3-8.5-11.5-17.4c0.9-8.9,7.4-15.5,14.6-14.8
		C87.1,192.8,92.2,200.6,91.3,209.5z"/>
	<path class="st20" d="M102.1,230.2c0,0,3.1,0.8,4.2,0.9c1.1,0.1,5.2,1,6.9,0.5c1.7-0.5-1.5-1.6-2.3-2.2c-0.8-0.6-0.7-2,1-2.5
		c1.7-0.5,5.5-0.3,7.6-0.6c2-0.3-2-6.4-5.3-7s-6.1-0.2-9.1,1.2c-2.8,1.4-4.4,3.7-5.7,4.2L102.1,230.2z"/>
	<path class="st4" d="M102.4,221.8L81,227.1l-1.1,13.6l25.3-8.7C105.8,227.3,102.4,221.8,102.4,221.8z"/>
	<path class="st4" d="M49.6,227.5c0,0-5.9,7.5,0,17.7c0,0,4.1,5.7,15.5,0.1L49.6,227.5z"/>
	<path class="st21" d="M67.2,218.8c0,0,9.2-0.6,16.5,4.4c0,0,0.5,1.5,2,2.5c1.4,1,8.6,3.8,8.6,3.8s-3.2,42.2,0.5,62.7
		c0,0-15.6,12.2-40,0c0,0-3.6-51.8-5.1-64.7C49.6,227.5,53.7,222.5,67.2,218.8z"/>
	<g>
		<polygon class="st5" points="63.1,288.4 19.4,263.1 34.1,305.8 77.8,331 		"/>
		<polygon class="st1" points="24.2,260.3 19.4,263.1 63.1,288.4 68,285.6 		"/>
		<polygon class="st11" points="68,285.6 63.1,288.4 77.8,331 82.8,328.1 		"/>
	</g>
	<path class="st20" d="M130.9,248.8c0,0,2.4-2.4,3.3-3.1c0.9-0.7,4.1-3.7,5.9-4.1c1.8-0.4-1.3,2.7-1.6,3.7c-0.4,1,1.8-0.8,3.5-1.4
		c1.7-0.7,3.7-0.5,5.7,0.2c4.1,1.5,3.9,9.7,0.6,8.8c-5.6-1.6-8.1,2.8-11.4,3.7c-2.3,0.6-3.3,0.6-4.7,0.9L130.9,248.8z"/>
	<path class="st4" d="M94.3,229.6l18.1,24l18.8-5.5c0,0,4,5.1,2.7,10.5l-25.1,9.8l-20.4-22.4C88.4,245.8,81.6,231.6,94.3,229.6z"/>
	<path class="st10" d="M84.2,184.5c0,0,1.4,3.3-5.3,4.2c-6.6,0.9-14.9,4.2-17,11.2c-1.4,4.5,0.2,9.3,2.5,13.2
		c0.8,1.3,1.6,2.7,2.6,3.8c0,0,4.4,1.2,9.8-1.7c0,0,3.3-2.2,5.3-6.4c0,0,4,1.7,5.2-1.6c0.9-2.4,3.8-3,5.3-4.4
		C92.6,202.9,101.6,188.2,84.2,184.5z"/>
	<g>
		<polygon class="st5" points="332.3,312.1 303.4,295.3 303.4,306.1 332.3,322.9 		"/>
		<polygon class="st1" points="333.3,278.1 303.4,295.3 332.3,312.1 362.3,294.8 		"/>
		<polygon class="st11" points="362.3,294.8 332.3,312.1 332.3,322.9 362.3,305.5 		"/>
	</g>
	<g>
		<polygon class="st5" points="332.3,294.4 303.4,277.5 303.4,288.4 332.3,305.1 		"/>
		<polygon class="st1" points="333.3,260.3 303.4,277.5 332.3,294.4 362.3,277.1 		"/>
		<polygon class="st11" points="362.3,277.1 332.3,294.4 332.3,305.1 362.3,287.8 		"/>
	</g>
	<g>
		<polygon class="st5" points="283.3,340.4 254.4,323.6 254.4,334.5 283.3,351.2 		"/>
		<polygon class="st1" points="284.3,306.4 254.4,323.6 283.3,340.4 313.3,323.2 		"/>
		<polygon class="st11" points="313.3,323.2 283.3,340.4 283.3,351.2 313.3,333.9 		"/>
	</g>
	<g>
		<polygon class="st5" points="283.3,322.7 254.4,305.9 254.4,316.7 283.3,333.5 		"/>
		<polygon class="st1" points="284.3,288.7 254.4,305.9 283.3,322.7 313.3,305.5 		"/>
		<polygon class="st11" points="313.3,305.5 283.3,322.7 283.3,333.5 313.3,316.2 		"/>
	</g>
	<g>
		<polygon class="st5" points="234.3,368.8 205.4,352 205.4,362.8 234.3,379.6 		"/>
		<polygon class="st1" points="235.3,334.8 205.4,352 234.3,368.8 264.3,351.6 		"/>
		<polygon class="st11" points="264.3,351.6 234.3,368.8 234.3,379.6 264.3,362.3 		"/>
	</g>
	<g>
		<polygon class="st5" points="234.3,351.1 205.4,334.3 205.4,345.1 234.3,361.9 		"/>
		<polygon class="st1" points="235.3,317.1 205.4,334.3 234.3,351.1 264.3,333.9 		"/>
		<polygon class="st11" points="264.3,333.9 234.3,351.1 234.3,361.9 264.3,344.5 		"/>
	</g>
	<g>
		<path class="st9" d="M243.4,340.5l-1.8-1c-1.3,0.5-2.8,0.9-4.3,1l0,1.5l-4.4,0l0-1.5c-1.5-0.2-3-0.5-4.3-1l-1.8,1l-3.1-1.8l1.8-1
			c-0.9-0.8-1.5-1.6-1.8-2.5h-2.6l0-2.6h2.6c0.3-0.9,0.9-1.7,1.8-2.5l-1.8-1l3.1-1.8l1.8,1c1.3-0.5,2.8-0.9,4.3-1l0-1.5h4.4l0,1.5
			c1.5,0.2,3,0.5,4.3,1l1.8-1.1l3.1,1.8l-1.8,1.1c0.9,0.8,1.5,1.6,1.8,2.5h2.6l0,2.6l-2.6,0c-0.3,0.9-0.9,1.7-1.8,2.5l1.8,1
			L243.4,340.5z M231,336.2c2.3,1.3,5.9,1.3,8.2,0c2.3-1.3,2.2-3.4,0-4.7c-2.3-1.3-5.9-1.3-8.2,0C228.7,332.8,228.7,334.9,231,336.2
			"/>
	</g>
	<polygon class="st22" points="286.5,298 289.3,304.1 292.2,310.1 281.8,308.5 271.4,306.9 278.9,302.5 	"/>
	<g>
		<path class="st23" d="M322,275.8c-1.6-0.9-0.9-2.2,2.1-4c1.4-0.8,2.8-1.4,4-1.6c1.2-0.2,2.2-0.2,2.8,0.2c0.3,0.2,0.6,0.4,0.8,0.7
			c0.2,0.3,0.3,0.5,0.4,0.8l2.7-0.7c-0.2-0.5-0.4-0.9-0.7-1.2c-0.3-0.3-0.7-0.6-1.2-0.9c-1.4-0.8-3.1-1.1-5.1-0.9
			c-2,0.2-4,0.9-6.1,2.1c-2.1,1.2-3.3,2.4-3.7,3.5c-0.4,1.1,0.2,2.1,1.6,2.9c1,0.6,2,0.9,3.1,1l2.1-1.2
			C323.6,276.5,322.7,276.2,322,275.8z"/>
		<path class="st23" d="M335,279.1c0.3-0.5,0.2-1.2,0-2c-0.2-0.6-0.3-1.1-0.2-1.4c0.1-0.3,0.3-0.6,0.8-0.9c0.4-0.3,0.9-0.4,1.4-0.4
			c0.5,0,0.9,0.1,1.3,0.3c0.4,0.2,0.6,0.4,0.8,0.7c0.2,0.3,0.3,0.5,0.5,0.8l2.7-0.7c-0.4-0.8-1-1.6-2-2.1c-1-0.6-2.2-0.9-3.5-0.9
			c-1.3,0-2.4,0.3-3.5,1c-0.6,0.3-1,0.7-1.3,1c-0.3,0.3-0.4,0.7-0.5,1.1c-0.1,0.4,0,0.8,0.2,1.4c0.2,0.6,0.3,1.1,0.2,1.5
			c-0.1,0.4-0.3,0.7-0.8,0.9c-0.4,0.2-0.9,0.4-1.4,0.4c-0.5,0-1-0.1-1.4-0.4c-0.8-0.5-1.4-1.2-1.7-2.1l-2.4,1.4
			c0.4,0.7,1.1,1.4,2.2,2c1.2,0.7,2.3,1,3.6,1c1.3,0,2.5-0.4,3.7-1.1C334.2,280.2,334.7,279.7,335,279.1z"/>
		<path class="st23" d="M347.5,277.7c-1-0.6-2.2-0.9-3.5-0.9c-1.3,0-2.4,0.4-3.5,1c-0.6,0.3-1,0.7-1.3,1c-0.3,0.3-0.4,0.7-0.5,1.1
			c-0.1,0.4,0,0.8,0.2,1.4c0.2,0.6,0.3,1.1,0.2,1.5c-0.1,0.4-0.3,0.7-0.8,0.9s-0.9,0.4-1.4,0.4c-0.5,0-1-0.1-1.4-0.4
			c-0.8-0.5-1.4-1.2-1.7-2.1l-2.4,1.4c0.4,0.7,1.1,1.4,2.2,2c1.2,0.7,2.4,1,3.6,1c1.3,0,2.5-0.4,3.7-1.1c0.8-0.4,1.2-0.9,1.5-1.5
			c0.3-0.5,0.2-1.2,0-2c-0.2-0.6-0.3-1.1-0.2-1.4c0.1-0.3,0.3-0.6,0.8-0.9c0.4-0.3,0.9-0.4,1.4-0.4c0.5,0,0.9,0.1,1.3,0.3
			c0.4,0.2,0.6,0.4,0.8,0.7c0.2,0.3,0.3,0.5,0.5,0.8l2.7-0.7C349.2,279,348.5,278.3,347.5,277.7z"/>
	</g>
	<g>
		<g>
			<g>
				<path class="st24" d="M331.7,181l-28.1-16.2c-0.9-0.5-1.8-0.5-2.8,0.1l0,0l-6.2,3.6l2.9,3.9l1.1,1.2v27.9c0,1.7,0.9,3.2,2.3,4
					l21.1,12.2l0.2,1.2l4.3,6l6.6-3.9c0,0,0,0,0,0l0,0v0c0.6-0.4,1-1,1-1.8l0-33.9C334.1,183.4,333.2,181.8,331.7,181z"/>
				<path class="st25" d="M325.1,184.8l-28.5-16.4c-1.4-0.8-3.1,0.2-3.1,1.8v34.1c0,1.7,0.9,3.2,2.3,4l28.5,16.5
					c1.4,0.8,3.2-0.2,3.2-1.8V189C327.5,187.3,326.6,185.7,325.1,184.8z"/>
			</g>
		</g>
		<g>
			<path class="st5" d="M326.4,224.8L326.4,224.8L326.4,224.8C326.4,224.8,326.4,224.8,326.4,224.8z"/>
			<path class="st26" d="M327.5,222.9V189c0-0.6-0.1-1.1-0.3-1.6l6.6-3.8c0.2,0.5,0.3,1,0.3,1.6l0,33.9c0,0.8-0.4,1.4-1,1.8v0l0,0
				c0,0,0,0,0,0l-6.6,3.9C327.1,224.4,327.5,223.7,327.5,222.9z"/>
		</g>
	</g>
	<g>
		<g>
			<g>
				<path class="st27" d="M363.9,113.2L335.7,97c-0.9-0.5-1.8-0.5-2.8,0.1h0l-6.2,3.6l2.9,3.9l1.1,1.2v27.9c0,1.7,0.9,3.2,2.3,4
					l21.1,12.2l0.2,1.2l4.3,6l6.6-3.9c0,0,0,0,0,0l0,0v0c0.6-0.4,1-1,1-1.8l0-33.9C366.3,115.6,365.4,114,363.9,113.2z"/>
				<path class="st28" d="M357.3,117.1l-28.5-16.4c-1.4-0.8-3.1,0.2-3.1,1.8v34.1c0,1.7,0.9,3.2,2.3,4l28.5,16.5
					c1.4,0.8,3.2-0.2,3.2-1.8v-33.9C359.7,119.5,358.8,117.9,357.3,117.1z"/>
			</g>
		</g>
		<g>
			<path class="st5" d="M358.6,157L358.6,157L358.6,157C358.6,157,358.6,157,358.6,157z"/>
			<path class="st29" d="M359.7,155.1v-33.9c0-0.6-0.1-1.1-0.3-1.6l6.6-3.8c0.2,0.5,0.3,1,0.3,1.6l0,33.9c0,0.8-0.4,1.4-1,1.8v0l0,0
				c0,0,0,0,0,0l-6.6,3.9C359.3,156.6,359.7,156,359.7,155.1z"/>
		</g>
	</g>
	<g>
		<g>
			<g>
				<path class="st30" d="M269.8,113.7l-28.1-16.2c-0.9-0.5-1.8-0.5-2.8,0.1v0l-6.2,3.6l2.9,3.9l1.1,1.2v27.9c0,1.7,0.9,3.2,2.3,4
					l21.1,12.2l0.2,1.2l4.3,6l6.6-3.9c0,0,0,0,0,0l0,0v0c0.6-0.4,1-1,1-1.8v-33.9C272.2,116.1,271.3,114.5,269.8,113.7z"/>
				<path class="st31" d="M263.2,117.5l-28.5-16.4c-1.4-0.8-3.1,0.2-3.1,1.8V137c0,1.7,0.9,3.2,2.3,4l28.5,16.5
					c1.4,0.8,3.2-0.2,3.2-1.8v-33.9C265.6,120,264.7,118.4,263.2,117.5z"/>
			</g>
		</g>
		<g>
			<path class="st5" d="M264.5,157.5L264.5,157.5L264.5,157.5C264.5,157.5,264.5,157.5,264.5,157.5z"/>
			<path class="st32" d="M265.6,155.6v-33.9c0-0.6-0.1-1.1-0.3-1.6l6.6-3.8c0.2,0.5,0.3,1,0.3,1.6v33.9c0,0.8-0.4,1.4-1,1.8v0l0,0
				c0,0,0,0,0,0l-6.6,3.9C265.2,157.1,265.6,156.4,265.6,155.6z"/>
		</g>
	</g>
	<g>
		<g>
			<g>
				<path class="st33" d="M208.2,48l-28.1-16.2c-0.9-0.5-1.8-0.5-2.8,0.1l0,0l-6.2,3.6l2.9,3.9l1.1,1.2v27.9c0,1.7,0.9,3.2,2.3,4
					l21.1,12.2l0.2,1.2l4.3,6l6.6-3.9c0,0,0,0,0,0l0,0v0c0.6-0.4,1-1,1-1.8l0-33.9C210.6,50.4,209.7,48.8,208.2,48z"/>
				<path class="st34" d="M201.6,51.8l-28.5-16.4c-1.4-0.8-3.1,0.2-3.1,1.8v34.1c0,1.7,0.9,3.2,2.3,4l28.5,16.5
					c1.4,0.8,3.2-0.2,3.2-1.8V56C204,54.3,203.1,52.7,201.6,51.8z"/>
			</g>
		</g>
		<g>
			<path class="st5" d="M202.9,91.8L202.9,91.8L202.9,91.8C202.9,91.8,202.9,91.8,202.9,91.8z"/>
			<path class="st35" d="M204,89.9V56c0-0.6-0.1-1.1-0.3-1.6l6.6-3.8c0.2,0.5,0.3,1,0.3,1.6l0,33.9c0,0.8-0.4,1.4-1,1.8v0l0,0
				c0,0,0,0,0,0l-6.6,3.9C203.6,91.4,204,90.7,204,89.9z"/>
		</g>
	</g>
	<path class="st1" d="M257.6,124.2c-1.7-3-4-5.3-6.3-6.6c-2.3-1.3-4.5-1.6-6.3-0.6c-3.1,1.8-3.4,7-1.1,12.4l-7.7,4.4l2.3,3.9
		l7.7-4.4c1.5,2.1,3.3,3.7,5,4.7c2.3,1.3,4.5,1.6,6.3,0.6C261,136.7,261.1,130.2,257.6,124.2z M255.3,134.7c-1.1,0.6-2.6,0.4-4-0.4
		c-1.5-0.8-2.9-2.3-4-4.2c-2.2-3.8-2.2-7.9,0-9.2c1.1-0.6,2.6-0.4,4,0.4c1.5,0.8,2.9,2.3,4,4.2C257.5,129.3,257.5,133.5,255.3,134.7
		z"/>
	<g>
		<path class="st28" d="M179,54.8c0.4,0.2,0.9,0.6,1.3,1c0.4,0.4,0.9,0.9,1.3,1.4l0.8-1.8c-1.1-1.3-2.3-2.2-3.4-2.9
			c-1.1-0.6-2.1-0.9-2.9-0.8c-0.8,0.1-1.4,0.5-1.9,1.3c-0.4,0.8-0.7,1.9-0.7,3.2c0,2.2,0.4,4.1,1.3,5.8c0.9,1.7,2.2,3,3.8,4
			c1.2,0.7,2.2,1.1,3.2,1.2l0-2.4c-1.2-0.2-2.1-0.5-2.9-1c-1.9-1.1-2.9-3.1-2.9-6.1c0-1.4,0.3-2.4,0.8-2.9
			C177.3,54.2,178.1,54.2,179,54.8z"/>
		<polygon class="st28" points="188.4,60.2 186.7,59.2 186.7,62.8 183.6,61 183.6,63 186.7,64.8 186.7,68.3 188.4,69.2 188.4,65.8 
			191.4,67.5 191.5,65.5 188.4,63.8 		"/>
		<polygon class="st28" points="197.6,69.1 197.6,65.6 195.9,64.6 195.9,68.1 192.8,66.3 192.8,68.3 195.9,70.1 195.9,73.6 
			197.6,74.6 197.6,71.1 200.7,72.8 200.7,70.9 		"/>
	</g>
	<g>
		<path class="st1" d="M335,114.9c-0.3,0.3-0.5,0.9-0.5,1.9l0,4.1v0.1c0,0.8-0.3,1.2-0.7,1.2c-0.5,0.1-1.2-0.2-2.1-0.7l0,2.8
			c0.9,0.5,1.6,1.1,2.1,1.7c0.5,0.6,0.7,1.4,0.7,2.2l0,4c0,0.9,0.1,1.7,0.5,2.4c0.3,0.7,0.8,1.3,1.5,2c0.7,0.6,1.6,1.3,2.8,1.9
			l0-2.7c-0.8-0.5-1.3-0.9-1.5-1.4c-0.3-0.5-0.4-1-0.4-1.6l0-3.9v-0.2c0-1.5-0.8-2.9-2.5-4.2v-0.2c1.7,0.7,2.5,0.2,2.6-1.4l0-3.9
			c0-0.6,0.1-1,0.4-1.1c0.3-0.1,0.8,0,1.5,0.4l0-2.7c-1.2-0.7-2.1-1.1-2.7-1.2C335.8,114.5,335.3,114.6,335,114.9z"/>
		<path class="st1" d="M350.9,132.1c-0.5-0.6-0.7-1.3-0.7-2.1v-0.1l0-4.1c0-1.3-0.3-2.4-1-3.4c-0.7-0.9-1.9-1.9-3.6-2.9l0,2.7
			c0.7,0.5,1.3,0.9,1.5,1.4c0.3,0.4,0.4,1,0.4,1.6l0,3.9c0,1.7,0.9,3.1,2.6,4.4v0.2c-0.8-0.3-1.5-0.4-1.9-0.2
			c-0.4,0.2-0.7,0.7-0.7,1.5l0,0.1l0,3.9c0,0.6-0.1,1-0.4,1.1c-0.3,0.1-0.8,0-1.5-0.4l0,2.7c1.7,1,2.9,1.4,3.6,1.3
			c0.7-0.1,1.1-0.9,1.1-2.2l0-4c0-0.8,0.3-1.3,0.7-1.4c0.5-0.1,1.2,0.2,2.1,0.7l0-2.8C352.1,133.3,351.4,132.7,350.9,132.1z"/>
	</g>
	<g>
		<polygon class="st16" points="297.1,190.4 305.9,199.9 305.9,197.5 299.9,191.1 306,191.4 306,188.9 297.1,188.9 		"/>
		<polygon class="st16" points="306.9,202.5 309.3,204 314.2,191.8 311.7,190.4 		"/>
		<polygon class="st16" points="315.1,194.2 315.1,196.6 321.1,203.4 315,202.7 315,205.2 323.9,205.8 323.9,204.3 		"/>
	</g>
	<g>
		<g>
			<polygon class="st34" points="133.1,145.6 133.1,147.3 140,151.2 140,149.6 			"/>
			<polygon class="st36" points="133.1,148.6 133.1,150.3 140,154.3 140,152.6 			"/>
			<polygon class="st36" points="133.1,151.6 133.1,153.3 140,157.3 140,155.6 			"/>
			<polygon class="st36" points="185.4,186.4 185.4,184.8 142.6,160.1 142.6,161.8 			"/>
			<polygon class="st36" points="133.1,154.6 133.1,156.3 140,160.3 140,158.6 			"/>
			<polygon class="st36" points="133.1,157.7 133.1,159.3 140,163.3 140,161.6 			"/>
			<polygon class="st25" points="185.4,189.5 185.4,187.8 142.6,163.1 142.6,164.8 			"/>
			<polygon class="st36" points="133.1,166.7 133.1,168.3 140,172.3 140,170.7 			"/>
			<polygon class="st34" points="133.1,169.7 133.1,171.3 140,175.3 140,173.7 			"/>
			<polygon class="st36" points="133.1,181.8 133.1,183.4 140,187.4 140,185.7 			"/>
			<polygon class="st36" points="133.1,184.8 133.1,186.4 140,190.4 140,188.8 			"/>
			<g>
				<polygon class="st25" points="169.6,205.8 142.6,190.3 142.6,191.9 169.6,207.5 				"/>
				<polygon class="st36" points="171,206.6 171,208.3 185.4,216.6 185.4,214.9 				"/>
			</g>
			<g>
				<polygon class="st36" points="156.2,195.1 142.6,187.2 142.6,188.9 156.2,196.7 				"/>
				<polygon class="st36" points="157.6,195.9 157.6,197.5 185.4,213.6 185.4,211.9 				"/>
			</g>
			<polygon class="st36" points="181.7,200.8 181.7,202.4 185.4,204.5 185.4,202.9 			"/>
			<polygon class="st4" points="161.9,186.3 142.6,175.2 142.6,176.8 161.9,187.9 			"/>
			<polygon class="st36" points="154,157.6 142.6,151.1 142.6,152.7 154,159.3 			"/>
			<g>
				<polygon class="st36" points="172.6,168.4 155.4,158.5 155.4,160.1 172.6,170 				"/>
			</g>
			<polygon class="st36" points="162.6,165.6 150.5,158.6 150.5,160.3 162.6,167.2 			"/>
			<g>
				<polygon class="st4" points="175.2,172.9 164,166.4 164,168.1 175.2,174.6 				"/>
				<polygon class="st36" points="176.7,173.7 176.7,175.4 185.4,180.4 185.4,178.8 				"/>
			</g>
			<polygon class="st4" points="144.9,158.4 144.9,160.1 154,165.3 154,163.7 			"/>
			<polygon class="st36" points="181.8,179.7 155.4,164.5 155.4,166.1 181.8,181.4 			"/>
			<polygon class="st36" points="166.7,180 149.4,170.1 149.4,171.7 166.7,181.7 			"/>
			<polygon class="st36" points="181.8,188.8 168.1,180.9 168.1,182.5 181.8,190.4 			"/>
			<g>
				<polygon class="st36" points="180.3,196.9 163.3,187.1 163.3,188.7 180.3,198.6 				"/>
			</g>
			<polygon class="st25" points="171,194.6 171,196.2 180.3,201.6 180.3,199.9 			"/>
			<polygon class="st36" points="146,180.1 142.6,178.2 142.6,179.9 146,181.8 			"/>
			<g>
				<polygon class="st36" points="152.2,183.7 152.2,185.4 169.6,195.4 169.6,193.8 				"/>
				<polygon class="st36" points="150.8,182.9 147.4,181 147.4,182.6 150.8,184.6 				"/>
			</g>
			<polygon class="st36" points="166.4,194.9 147.4,184 147.4,185.6 166.4,196.6 			"/>
		</g>
		<g>
			<polygon class="st36" points="188.4,177.5 188.4,178 190.3,179.1 190.3,178.6 			"/>
			<polygon class="st36" points="188.4,178.3 188.4,178.8 190.3,179.9 190.3,179.4 			"/>
			<polygon class="st36" points="188.4,179.2 188.4,179.6 190.3,180.7 190.3,180.3 			"/>
			<polygon class="st36" points="202.8,188.8 202.8,188.3 191,181.5 191,182 			"/>
			<polygon class="st36" points="188.4,180 188.4,180.5 190.3,181.6 190.3,181.1 			"/>
			<polygon class="st36" points="188.4,180.8 188.4,181.3 190.3,182.4 190.3,181.9 			"/>
			<polygon class="st36" points="202.8,189.6 202.8,189.1 191,182.3 191,182.8 			"/>
			<polygon class="st36" points="188.4,183.3 188.4,183.8 190.3,184.9 190.3,184.4 			"/>
			<polygon class="st36" points="188.4,184.1 188.4,184.6 190.3,185.7 190.3,185.3 			"/>
			<polygon class="st36" points="188.4,187.5 188.4,187.9 190.3,189 190.3,188.6 			"/>
			<polygon class="st36" points="188.4,188.3 188.4,188.8 190.3,189.9 190.3,189.4 			"/>
			<g>
				<polygon class="st36" points="198.5,194.1 191,189.8 191,190.3 198.5,194.6 				"/>
				<polygon class="st36" points="198.9,194.3 198.9,194.8 202.8,197.1 202.8,196.6 				"/>
			</g>
			<g>
				<polygon class="st36" points="194.8,191.1 191,189 191,189.4 194.8,191.6 				"/>
				<polygon class="st36" points="195.2,191.4 195.2,191.8 202.8,196.2 202.8,195.8 				"/>
			</g>
			<polygon class="st36" points="201.8,192.7 201.8,193.2 202.8,193.7 202.8,193.3 			"/>
			<polygon class="st36" points="196.3,188.7 191,185.7 191,186.1 196.3,189.2 			"/>
			<polygon class="st36" points="194.2,180.8 191,179 191,179.5 194.2,181.3 			"/>
			<g>
				<polygon class="st36" points="199.3,183.8 194.5,181.1 194.5,181.5 199.3,184.2 				"/>
			</g>
			<polygon class="st36" points="196.5,183 193.2,181.1 193.2,181.6 196.5,183.5 			"/>
			<g>
				<polygon class="st36" points="200,185 196.9,183.2 196.9,183.7 200,185.5 				"/>
				<polygon class="st36" points="200.4,185.3 200.4,185.7 202.8,187.1 202.8,186.6 				"/>
			</g>
			<polygon class="st36" points="191.6,181 191.6,181.5 194.2,182.9 194.2,182.5 			"/>
			<polygon class="st36" points="201.8,186.9 194.5,182.7 194.5,183.2 201.8,187.4 			"/>
			<polygon class="st36" points="197.7,187 192.9,184.3 192.9,184.7 197.7,187.5 			"/>
			<polygon class="st36" points="201.8,189.4 198,187.2 198,187.7 201.8,189.9 			"/>
			<g>
				<polygon class="st36" points="201.4,191.7 196.7,188.9 196.7,189.4 201.4,192.1 				"/>
			</g>
			<polygon class="st36" points="198.9,191 198.9,191.5 201.4,192.9 201.4,192.5 			"/>
			<polygon class="st36" points="191.9,187 191,186.5 191,186.9 191.9,187.5 			"/>
			<g>
				<polygon class="st36" points="193.7,188 193.7,188.5 198.5,191.2 198.5,190.8 				"/>
				<polygon class="st36" points="193.3,187.8 192.3,187.3 192.3,187.7 193.3,188.2 				"/>
			</g>
			<polygon class="st36" points="197.6,191.1 192.3,188.1 192.3,188.5 197.6,191.6 			"/>
		</g>
		<g>
			<polygon class="st36" points="188.4,191.6 188.4,192 190.3,193.1 190.3,192.7 			"/>
			<polygon class="st36" points="188.4,192.4 188.4,192.8 190.3,193.9 190.3,193.5 			"/>
			<polygon class="st36" points="188.4,193.2 188.4,193.7 190.3,194.8 190.3,194.3 			"/>
			<polygon class="st36" points="202.8,202.8 202.8,202.4 191,195.6 191,196 			"/>
			<polygon class="st36" points="188.4,194 188.4,194.5 190.3,195.6 190.3,195.1 			"/>
			<polygon class="st36" points="188.4,194.9 188.4,195.3 190.3,196.4 190.3,196 			"/>
			<polygon class="st36" points="202.8,203.6 202.8,203.2 191,196.4 191,196.8 			"/>
			<polygon class="st36" points="188.4,197.4 188.4,197.8 190.3,198.9 190.3,198.5 			"/>
			<polygon class="st36" points="188.4,198.2 188.4,198.6 190.3,199.8 190.3,199.3 			"/>
			<polygon class="st36" points="188.4,201.5 188.4,202 190.3,203.1 190.3,202.6 			"/>
			<polygon class="st36" points="188.4,202.3 188.4,202.8 190.3,203.9 190.3,203.4 			"/>
			<g>
				<polygon class="st36" points="198.5,208.1 191,203.9 191,204.3 198.5,208.6 				"/>
				<polygon class="st36" points="198.9,208.4 198.9,208.8 202.8,211.1 202.8,210.7 				"/>
			</g>
			<g>
				<polygon class="st36" points="194.8,205.2 191,203 191,203.5 194.8,205.6 				"/>
				<polygon class="st36" points="195.2,205.4 195.2,205.9 202.8,210.3 202.8,209.8 				"/>
			</g>
			<polygon class="st36" points="201.8,206.8 201.8,207.2 202.8,207.8 202.8,207.3 			"/>
			<polygon class="st36" points="196.3,202.8 191,199.7 191,200.2 196.3,203.2 			"/>
			<polygon class="st36" points="194.2,194.9 191,193.1 191,193.5 194.2,195.3 			"/>
			<g>
				<polygon class="st36" points="199.3,197.8 194.5,195.1 194.5,195.6 199.3,198.3 				"/>
			</g>
			<polygon class="st36" points="196.5,197.1 193.2,195.1 193.2,195.6 196.5,197.5 			"/>
			<g>
				<polygon class="st36" points="200,199.1 196.9,197.3 196.9,197.7 200,199.5 				"/>
				<polygon class="st36" points="200.4,199.3 200.4,199.8 202.8,201.1 202.8,200.7 				"/>
			</g>
			<polygon class="st36" points="191.6,195.1 191.6,195.5 194.2,197 194.2,196.5 			"/>
			<polygon class="st36" points="201.8,201 194.5,196.8 194.5,197.2 201.8,201.4 			"/>
			<polygon class="st36" points="197.7,201 192.9,198.3 192.9,198.8 197.7,201.5 			"/>
			<polygon class="st36" points="201.8,203.4 198,201.3 198,201.7 201.8,203.9 			"/>
			<g>
				<polygon class="st36" points="201.4,205.7 196.7,203 196.7,203.4 201.4,206.2 				"/>
			</g>
			<polygon class="st36" points="198.9,205.1 198.9,205.5 201.4,207 201.4,206.5 			"/>
			<polygon class="st36" points="191.9,201.1 191,200.5 191,201 191.9,201.5 			"/>
			<g>
				<polygon class="st36" points="193.7,202.1 193.7,202.5 198.5,205.3 198.5,204.8 				"/>
				<polygon class="st36" points="193.3,201.8 192.3,201.3 192.3,201.8 193.3,202.3 				"/>
			</g>
			<polygon class="st36" points="197.6,205.1 192.3,202.1 192.3,202.6 197.6,205.6 			"/>
		</g>
		<g>
			<polygon class="st36" points="188.4,205.6 188.4,206.1 190.3,207.2 190.3,206.7 			"/>
			<polygon class="st36" points="188.4,206.4 188.4,206.9 190.3,208 190.3,207.5 			"/>
			<polygon class="st36" points="188.4,207.3 188.4,207.7 190.3,208.8 190.3,208.4 			"/>
			<polygon class="st36" points="202.8,216.9 202.8,216.4 191,209.6 191,210.1 			"/>
			<polygon class="st36" points="188.4,208.1 188.4,208.5 190.3,209.6 190.3,209.2 			"/>
			<polygon class="st36" points="188.4,208.9 188.4,209.4 190.3,210.5 190.3,210 			"/>
			<polygon class="st36" points="202.8,217.7 202.8,217.2 191,210.4 191,210.9 			"/>
			<polygon class="st36" points="188.4,211.4 188.4,211.9 190.3,213 190.3,212.5 			"/>
			<polygon class="st36" points="188.4,212.2 188.4,212.7 190.3,213.8 190.3,213.3 			"/>
			<polygon class="st36" points="188.4,215.6 188.4,216 190.3,217.1 190.3,216.7 			"/>
			<polygon class="st36" points="188.4,216.4 188.4,216.8 190.3,217.9 190.3,217.5 			"/>
			<g>
				<polygon class="st36" points="198.5,222.2 191,217.9 191,218.4 198.5,222.6 				"/>
				<polygon class="st36" points="198.9,222.4 198.9,222.9 202.8,225.2 202.8,224.7 				"/>
			</g>
			<g>
				<polygon class="st36" points="194.8,219.2 191,217.1 191,217.5 194.8,219.7 				"/>
				<polygon class="st36" points="195.2,219.5 195.2,219.9 202.8,224.3 202.8,223.9 				"/>
			</g>
			<polygon class="st36" points="201.8,220.8 201.8,221.3 202.8,221.8 202.8,221.4 			"/>
			<polygon class="st36" points="196.3,216.8 191,213.8 191,214.2 196.3,217.3 			"/>
			<polygon class="st36" points="194.2,208.9 191,207.1 191,207.6 194.2,209.4 			"/>
			<g>
				<polygon class="st36" points="199.3,211.9 194.5,209.1 194.5,209.6 199.3,212.3 				"/>
			</g>
			<polygon class="st36" points="196.5,211.1 193.2,209.2 193.2,209.6 196.5,211.6 			"/>
			<g>
				<polygon class="st36" points="200,213.1 196.9,211.3 196.9,211.8 200,213.6 				"/>
				<polygon class="st36" points="200.4,213.3 200.4,213.8 202.8,215.2 202.8,214.7 				"/>
			</g>
			<polygon class="st36" points="191.6,209.1 191.6,209.6 194.2,211 194.2,210.6 			"/>
			<polygon class="st36" points="201.8,215 194.5,210.8 194.5,211.3 201.8,215.5 			"/>
			<polygon class="st36" points="197.7,215.1 192.9,212.3 192.9,212.8 197.7,215.5 			"/>
			<polygon class="st36" points="201.8,217.5 198,215.3 198,215.8 201.8,217.9 			"/>
			<g>
				<polygon class="st36" points="201.4,219.7 196.7,217 196.7,217.5 201.4,220.2 				"/>
			</g>
			<polygon class="st36" points="198.9,219.1 198.9,219.6 201.4,221 201.4,220.6 			"/>
			<polygon class="st36" points="191.9,215.1 191,214.6 191,215 191.9,215.6 			"/>
			<g>
				<polygon class="st36" points="193.7,216.1 193.7,216.6 198.5,219.3 198.5,218.9 				"/>
				<polygon class="st36" points="193.3,215.9 192.3,215.3 192.3,215.8 193.3,216.3 				"/>
			</g>
			<polygon class="st36" points="197.6,219.2 192.3,216.2 192.3,216.6 197.6,219.6 			"/>
		</g>
		<g>
			<polygon class="st36" points="188.4,219.6 188.4,220.1 190.3,221.2 190.3,220.7 			"/>
			<polygon class="st36" points="188.4,220.5 188.4,220.9 190.3,222 190.3,221.6 			"/>
			<polygon class="st36" points="188.4,221.3 188.4,221.8 190.3,222.9 190.3,222.4 			"/>
			<polygon class="st36" points="202.8,230.9 202.8,230.4 191,223.6 191,224.1 			"/>
			<polygon class="st36" points="188.4,222.1 188.4,222.6 190.3,223.7 190.3,223.2 			"/>
			<polygon class="st36" points="188.4,223 188.4,223.4 190.3,224.5 190.3,224.1 			"/>
			<polygon class="st36" points="202.8,231.7 202.8,231.3 191,224.5 191,224.9 			"/>
			<polygon class="st36" points="188.4,225.5 188.4,225.9 190.3,227 190.3,226.6 			"/>
			<polygon class="st36" points="188.4,226.3 188.4,226.7 190.3,227.8 190.3,227.4 			"/>
			<polygon class="st36" points="201.8,234.8 201.8,235.3 202.8,235.9 202.8,235.4 			"/>
			<polygon class="st36" points="196.3,230.9 191,227.8 191,228.3 196.3,231.3 			"/>
			<polygon class="st36" points="194.2,223 191,221.2 191,221.6 194.2,223.4 			"/>
			<g>
				<polygon class="st36" points="199.3,225.9 194.5,223.2 194.5,223.6 199.3,226.4 				"/>
			</g>
			<polygon class="st36" points="196.5,225.2 193.2,223.2 193.2,223.7 196.5,225.6 			"/>
			<g>
				<polygon class="st36" points="200,227.2 196.9,225.4 196.9,225.8 200,227.6 				"/>
				<polygon class="st36" points="200.4,227.4 200.4,227.8 202.8,229.2 202.8,228.8 				"/>
			</g>
			<polygon class="st36" points="191.6,223.2 191.6,223.6 194.2,225.1 194.2,224.6 			"/>
			<polygon class="st36" points="201.8,229 194.5,224.8 194.5,225.3 201.8,229.5 			"/>
			<polygon class="st36" points="197.7,229.1 192.9,226.4 192.9,226.8 197.7,229.6 			"/>
			<polygon class="st36" points="201.8,231.5 198,229.4 198,229.8 201.8,232 			"/>
			<g>
				<polygon class="st36" points="201.4,233.8 196.7,231.1 196.7,231.5 201.4,234.2 				"/>
			</g>
			<polygon class="st36" points="198.9,233.1 198.9,233.6 201.4,235.1 201.4,234.6 			"/>
			<polygon class="st36" points="191.9,229.2 191,228.6 191,229.1 191.9,229.6 			"/>
			<g>
				<polygon class="st36" points="193.7,230.2 193.7,230.6 198.5,233.4 198.5,232.9 				"/>
				<polygon class="st36" points="193.3,229.9 192.3,229.4 192.3,229.8 193.3,230.4 				"/>
			</g>
			<polygon class="st36" points="197.6,233.2 192.3,230.2 192.3,230.7 197.6,233.7 			"/>
		</g>
		<g>
			<path class="st25" d="M128.7,143l-2.3-1.3c-0.1-0.1-0.2,0-0.2,0.1v2.7c0,0.1,0.1,0.3,0.2,0.3l2.3,1.3c0.1,0.1,0.3,0,0.3-0.1v-2.7
				C128.9,143.2,128.8,143.1,128.7,143z"/>
			<path class="st25" d="M128.7,147.1l-2.3-1.3c-0.1-0.1-0.2,0-0.2,0.1v2.7c0,0.1,0.1,0.3,0.2,0.3l2.3,1.3c0.1,0.1,0.3,0,0.3-0.1
				v-2.7C128.9,147.3,128.8,147.2,128.7,147.1z"/>
			<path class="st25" d="M128.7,151.2l-2.3-1.3c-0.1-0.1-0.2,0-0.2,0.1v2.7c0,0.1,0.1,0.3,0.2,0.3l2.3,1.3c0.1,0.1,0.3,0,0.3-0.1
				v-2.7C128.9,151.4,128.8,151.3,128.7,151.2z"/>
			<path class="st25" d="M128.7,155.3l-2.3-1.3c-0.1-0.1-0.2,0-0.2,0.1v2.7c0,0.1,0.1,0.3,0.2,0.3l2.3,1.3c0.1,0.1,0.3,0,0.3-0.1
				v-2.7C128.9,155.5,128.8,155.4,128.7,155.3z"/>
			<path class="st25" d="M128.7,159.4l-2.3-1.3c-0.1-0.1-0.2,0-0.2,0.1v2.7c0,0.1,0.1,0.3,0.2,0.3l2.3,1.3c0.1,0.1,0.3,0,0.3-0.1
				v-2.7C128.9,159.6,128.8,159.5,128.7,159.4z"/>
			<path class="st25" d="M128.7,163.5l-2.3-1.3c-0.1-0.1-0.2,0-0.2,0.1v2.7c0,0.1,0.1,0.3,0.2,0.3l2.3,1.3c0.1,0.1,0.3,0,0.3-0.1
				v-2.7C128.9,163.7,128.8,163.5,128.7,163.5z"/>
			<path class="st25" d="M128.7,167.6l-2.3-1.3c-0.1-0.1-0.2,0-0.2,0.1v2.7c0,0.1,0.1,0.3,0.2,0.3l2.3,1.3c0.1,0.1,0.3,0,0.3-0.1
				v-2.7C128.9,167.8,128.8,167.6,128.7,167.6z"/>
			<path class="st25" d="M128.7,171.7l-2.3-1.3c-0.1-0.1-0.2,0-0.2,0.1v2.7c0,0.1,0.1,0.3,0.2,0.3l2.3,1.3c0.1,0.1,0.3,0,0.3-0.1
				V172C128.9,171.8,128.8,171.7,128.7,171.7z"/>
			<path class="st25" d="M128.7,175.7l-2.3-1.3c-0.1-0.1-0.2,0-0.2,0.1v2.7c0,0.1,0.1,0.3,0.2,0.3l2.3,1.3c0.1,0.1,0.3,0,0.3-0.1
				v-2.7C128.9,175.9,128.8,175.8,128.7,175.7z"/>
			<path class="st25" d="M128.7,179.8l-2.3-1.3c-0.1-0.1-0.2,0-0.2,0.1v2.7c0,0.1,0.1,0.3,0.2,0.3l2.3,1.3c0.1,0.1,0.3,0,0.3-0.1
				v-2.7C128.9,180,128.8,179.9,128.7,179.8z"/>
			<path class="st25" d="M128.7,183.9l-2.3-1.3c-0.1-0.1-0.2,0-0.2,0.1v2.7c0,0.1,0.1,0.3,0.2,0.3l2.3,1.3c0.1,0.1,0.3,0,0.3-0.1
				v-2.7C128.9,184.1,128.8,184,128.7,183.9z"/>
			<path class="st25" d="M128.7,188l-2.3-1.3c-0.1-0.1-0.2,0-0.2,0.1v2.7c0,0.1,0.1,0.3,0.2,0.3l2.3,1.3c0.1,0.1,0.3,0,0.3-0.1v-2.7
				C128.9,188.2,128.8,188.1,128.7,188z"/>
		</g>
	</g>
	<g class="st37">
		<g>
			<polygon class="st38" points="235.9,157.5 235.9,159.2 242.8,163.2 242.8,161.5 			"/>
			<polygon class="st38" points="235.9,160.5 235.9,162.2 242.8,166.2 242.8,164.5 			"/>
			<polygon class="st38" points="235.9,163.5 235.9,165.2 242.8,169.2 242.8,167.5 			"/>
			<polygon class="st38" points="288.2,198.4 288.2,196.7 245.4,172.1 245.4,173.7 			"/>
			<polygon class="st38" points="235.9,166.6 235.9,168.2 242.8,172.2 242.8,170.6 			"/>
			<polygon class="st38" points="235.9,169.6 235.9,171.2 242.8,175.2 242.8,173.6 			"/>
			<polygon class="st38" points="288.2,201.4 288.2,199.7 245.4,175.1 245.4,176.7 			"/>
			<polygon class="st38" points="235.9,178.6 235.9,180.3 242.8,184.3 242.8,182.6 			"/>
			<polygon class="st38" points="235.9,181.6 235.9,183.3 242.8,187.3 242.8,185.6 			"/>
			<polygon class="st38" points="235.9,193.7 235.9,195.3 242.8,199.3 242.8,197.7 			"/>
			<polygon class="st38" points="235.9,196.7 235.9,198.3 242.8,202.3 242.8,200.7 			"/>
			<g>
				<polygon class="st38" points="272.4,217.7 245.4,202.2 245.4,203.8 272.4,219.4 				"/>
				<polygon class="st38" points="273.8,218.6 273.8,220.2 288.2,228.5 288.2,226.8 				"/>
			</g>
			<g>
				<polygon class="st38" points="259,207 245.4,199.2 245.4,200.8 259,208.6 				"/>
				<polygon class="st38" points="260.4,207.8 260.4,209.5 288.2,225.5 288.2,223.8 				"/>
			</g>
			<polygon class="st38" points="284.5,212.7 284.5,214.3 288.2,216.4 288.2,214.8 			"/>
			<polygon class="st38" points="264.6,198.2 245.4,187.1 245.4,188.8 264.6,199.8 			"/>
			<polygon class="st38" points="256.8,169.6 245.4,163 245.4,164.7 256.8,171.2 			"/>
			<g>
				<polygon class="st38" points="275.3,180.3 258.2,170.4 258.2,172 275.3,181.9 				"/>
			</g>
			<polygon class="st38" points="265.3,177.5 253.3,170.6 253.3,172.2 265.3,179.2 			"/>
			<g>
				<polygon class="st38" points="278,184.8 266.8,178.3 266.8,180 278,186.5 				"/>
				<polygon class="st38" points="279.4,185.7 279.4,187.3 288.2,192.3 288.2,190.7 				"/>
			</g>
			<polygon class="st38" points="247.7,170.3 247.7,172 256.8,177.2 256.8,175.6 			"/>
			<polygon class="st38" points="284.6,191.6 258.2,176.4 258.2,178.1 284.6,193.3 			"/>
			<polygon class="st38" points="269.5,192 252.2,182 252.2,183.6 269.5,193.6 			"/>
			<polygon class="st38" points="284.6,200.7 270.9,192.8 270.9,194.4 284.6,202.3 			"/>
			<g>
				<polygon class="st38" points="283.1,208.9 266,199 266,200.7 283.1,210.5 				"/>
			</g>
			<polygon class="st38" points="273.8,206.5 273.8,208.2 283.1,213.5 283.1,211.9 			"/>
			<polygon class="st38" points="248.8,192.1 245.4,190.1 245.4,191.8 248.8,193.7 			"/>
			<g>
				<polygon class="st38" points="255,195.7 255,197.3 272.4,207.3 272.4,205.7 				"/>
				<polygon class="st38" points="253.6,194.9 250.2,192.9 250.2,194.5 253.6,196.5 				"/>
			</g>
			<polygon class="st38" points="269.2,206.8 250.2,195.9 250.2,197.5 269.2,208.5 			"/>
		</g>
	</g>
	<g class="st0">
		<g>
			<polygon class="st1" points="299.6,54.3 299.6,55.9 306.5,59.9 306.5,58.3 			"/>
			<polygon class="st1" points="299.6,57.3 299.6,58.9 306.5,62.9 306.5,61.3 			"/>
			<polygon class="st1" points="299.6,60.3 299.6,62 306.5,66 306.5,64.3 			"/>
			<polygon class="st1" points="351.8,95.1 351.8,93.5 309.1,68.8 309.1,70.5 			"/>
			<polygon class="st1" points="299.6,63.3 299.6,65 306.5,69 306.5,67.3 			"/>
			<polygon class="st1" points="299.6,66.3 299.6,68 306.5,72 306.5,70.3 			"/>
			<polygon class="st1" points="351.8,98.1 351.8,96.5 309.1,71.8 309.1,73.5 			"/>
			<polygon class="st1" points="299.6,75.4 299.6,77 306.5,81 306.5,79.4 			"/>
			<polygon class="st1" points="299.6,78.4 299.6,80 306.5,84 306.5,82.4 			"/>
			<polygon class="st1" points="299.6,90.4 299.6,92.1 306.5,96.1 306.5,94.4 			"/>
			<polygon class="st1" points="299.6,93.4 299.6,95.1 306.5,99.1 306.5,97.4 			"/>
			<g>
				<polygon class="st1" points="336.1,114.5 309.1,98.9 309.1,100.6 336.1,116.1 				"/>
				<polygon class="st1" points="337.5,115.3 337.5,117 351.8,125.3 351.8,123.6 				"/>
			</g>
			<g>
				<polygon class="st1" points="322.6,103.7 309.1,95.9 309.1,97.6 322.6,105.4 				"/>
				<polygon class="st1" points="324.1,104.6 324.1,106.2 351.8,122.2 351.8,120.6 				"/>
			</g>
			<polygon class="st1" points="348.2,109.4 348.2,111.1 351.8,113.2 351.8,111.6 			"/>
			<polygon class="st1" points="328.3,95 309.1,83.9 309.1,85.5 328.3,96.6 			"/>
			<polygon class="st1" points="320.4,66.3 309.1,59.8 309.1,61.4 320.4,68 			"/>
			<g>
				<polygon class="st1" points="339,77 321.9,67.1 321.9,68.8 339,78.7 				"/>
			</g>
			<polygon class="st1" points="329,74.3 316.9,67.3 316.9,69 329,75.9 			"/>
			<g>
				<polygon class="st1" points="341.7,81.6 330.4,75.1 330.4,76.8 341.7,83.2 				"/>
				<polygon class="st1" points="343.1,82.4 343.1,84.1 351.8,89.1 351.8,87.5 				"/>
			</g>
			<polygon class="st1" points="311.3,67.1 311.3,68.7 320.4,74 320.4,72.3 			"/>
			<polygon class="st1" points="348.3,88.4 321.9,73.2 321.9,74.8 348.3,90.1 			"/>
			<polygon class="st1" points="333.2,88.7 315.9,78.8 315.9,80.4 333.2,90.4 			"/>
			<polygon class="st1" points="348.3,97.4 334.6,89.5 334.6,91.2 348.3,99.1 			"/>
			<g>
				<polygon class="st1" points="346.8,105.6 329.7,95.8 329.7,97.4 346.8,107.3 				"/>
			</g>
			<polygon class="st1" points="337.5,103.3 337.5,104.9 346.8,110.3 346.8,108.6 			"/>
			<polygon class="st1" points="312.4,88.8 309.1,86.9 309.1,88.5 312.4,90.5 			"/>
			<g>
				<polygon class="st1" points="318.7,92.4 318.7,94.1 336.1,104.1 336.1,102.5 				"/>
				<polygon class="st1" points="317.3,91.6 313.9,89.6 313.9,91.3 317.3,93.3 				"/>
			</g>
			<polygon class="st1" points="332.9,103.6 313.9,92.7 313.9,94.3 332.9,105.3 			"/>
		</g>
	</g>
	<path class="st14" d="M174.3,266c0,0-3.9-1.7-8.5,1.3c-4.6,3-7.7,7.3-5.8,8.9c1.9,1.6,5.5,3.2,7.9,2.4
		C170.2,277.7,181.9,270.8,174.3,266z"/>
	<g>
		<polygon class="st4" points="271.2,248 235,268.5 211.8,255.2 248.1,234.6 		"/>
		<g>
			<polygon class="st39" points="242.1,268.1 242.1,268.9 278.4,248.1 278.4,247.5 			"/>
			<polygon class="st40" points="278.4,247.5 242.1,268.1 218.9,254.7 255.2,234.1 			"/>
			<polygon class="st41" points="242.1,268.1 242.1,268.9 218.9,255.5 218.9,254.7 			"/>
		</g>
		<polygon class="st42" points="255,236.3 268.9,244.4 268.3,244.7 254.4,236.7 		"/>
		<polygon class="st42" points="253.5,237.1 267.5,245.2 266.9,245.5 252.9,237.5 		"/>
		<polygon class="st42" points="250.1,239 269.4,250.2 268.8,250.5 249.5,239.4 		"/>
		<polygon class="st42" points="248.8,239.8 268.1,250.9 267.4,251.3 248.2,240.2 		"/>
		<polygon class="st42" points="247.5,240.6 266.7,251.7 266.1,252 246.9,240.9 		"/>
		<polygon class="st42" points="246.1,241.3 265.4,252.4 264.8,252.8 245.5,241.7 		"/>
		<polygon class="st42" points="244.8,242.1 264.1,253.2 263.4,253.5 244.2,242.4 		"/>
		<polygon class="st42" points="243.5,242.8 262.7,253.9 262.1,254.3 242.9,243.2 		"/>
		<polygon class="st42" points="242.2,243.6 261.4,254.7 260.8,255 241.5,243.9 		"/>
		<polygon class="st42" points="240.8,244.3 260.1,255.4 259.4,255.8 240.2,244.7 		"/>
		<polygon class="st42" points="239.5,245.1 258.7,256.2 258.1,256.5 238.9,245.4 		"/>
		<polygon class="st42" points="238.2,245.9 257.4,257 256.8,257.3 237.5,246.2 		"/>
		<polygon class="st42" points="236.8,246.6 256.1,257.7 255.5,258.1 236.2,247 		"/>
		<polygon class="st42" points="235.5,247.4 254.7,258.5 254.1,258.8 234.9,247.7 		"/>
		<polygon class="st42" points="234.2,248.1 253.4,259.2 252.8,259.6 233.5,248.5 		"/>
		<polygon class="st42" points="232.8,248.9 252.1,260 251.5,260.3 232.2,249.2 		"/>
		<polygon class="st42" points="231.5,249.6 250.7,260.7 250.1,261.1 230.9,250 		"/>
	</g>
	<g>
		<path class="st11" d="M215.8,260h-3.4v3.7h3.4c1.3,0,2.3,1,2.3,2.3v6c0,1.3-1,2.3-2.3,2.3h-5v3.7h5c3.3,0,5.9-2.7,5.9-5.9v-6
			C221.8,262.6,219.1,260,215.8,260z"/>
		<path class="st5" d="M214.5,257.9v20.6c0,3.2-4.8,5.8-10.6,5.8c-5.9,0-10.6-2.6-10.6-5.8v-20.6H214.5z"/>
		<path class="st1" d="M193.3,257.9c0,3.2,4.8,5.8,10.6,5.8c5.9,0,10.6-2.6,10.6-5.8c0-3.2-4.8-5.8-10.6-5.8
			C198,252.1,193.3,254.7,193.3,257.9z"/>
		<path class="st11" d="M195.4,257.9c0,2.5,3.8,4.5,8.5,4.5c4.7,0,8.5-2,8.5-4.5c0-2.5-3.8-4.5-8.5-4.5
			C199.2,253.3,195.4,255.4,195.4,257.9z"/>
		<path class="st10" d="M203.9,256.3c-3.7,0-6.9,1.3-8,3c1.2,1.8,4.3,3,8,3c3.7,0,6.9-1.3,8-3C210.8,257.6,207.6,256.3,203.9,256.3z
			"/>
		<path class="st11" d="M207.9,263.3v20.6c2.1-0.5,3.8-1.3,5-2.3V261C211.8,262,210,262.8,207.9,263.3z"/>
	</g>
</g>
</svg>
