<svg  xmlns="http://www.w3.org/2000/svg" viewBox="0 0 31 26" class="h-8 w-8">
  <path fill-rule="evenodd" clip-rule="evenodd" d="M17.936 22.704a9.756 9.756 0 0 0 8.956-5.859h3.527A13.062 13.062 0 0 1 17.936 26a13.062 13.062 0 0 1-12.483-9.155h3.526a9.756 9.756 0 0 0 8.957 5.86Zm0-19.408a9.756 9.756 0 0 0-8.957 5.859H5.453A13.062 13.062 0 0 1 17.936 0c5.87 0 10.836 3.852 12.483 9.155h.002c.498 1.72.579 3.05.579 3.662 0 .976-.081 1.65-.081 1.65H0l2.576-3.21h24.957s-.213-1.187-.64-2.102a9.756 9.756 0 0 0-8.957-5.86Z" fill="#65FEB7"></path>
</svg>