<svg
    className="raw_logo"
    width="50%"
    height="40%"
    viewBox="0 0 440 305"
    fill="none"
    xmlns="http://www.w3.org/2000/svg"
>
        <path
          class="letter_a"
          d="M217.945 123.968V132H194.566V123.968H200.65L198.395 115.799H186.056L183.526 123.968H189.884V132H168.829V123.968H174.708L183.971 92.4883H177.647V84.4561H208.683V92.4883H202.291L212.271 123.968H217.945ZM196.446 108.826L192.481 94.5049L188.209 108.826H196.446Z"
        />
        <path
          class="letter_h"
          d="M217.153 158V149.968H223.101V118.488H217.153V110.456H240.122V118.488H235.132V128.913H248.086V118.488H243.267V110.456H266.099V118.488H260.117V149.968H266.099V158H243.267V149.968H248.086V136.979H235.132V149.968H240.122V158H217.153Z"
        />
        <path 
          class="letter_j"
          transform="matrix(0.8 0 0 0.5 -14 6)"  d="M 241.183 153.28 L 288.832 153.383 L 288.832 156.747 L 273.17 157.063 C 273.17 157.063 269.848 157.459 269.529 161.035 L 269.631 228.429 C 267.679 250.862 245.256 258.538 230.826 250.597 C 228.911 249.543 226.176 247.13 225.195 243.154 C 224.753 241.361 225.498 235.523 230.443 234.955 C 233.143 234.645 235.562 234.539 237.568 239.118 C 238.192 240.543 238.92 243.258 236.482 245.86 C 235.65 246.748 240.397 249.265 242.845 249.449 C 247.598 249.805 250.205 248.312 253.006 246.83 C 257.492 244.456 260.34 236.634 260.45 229.168 C 260.818 204.298 259.808 184.676 260.028 161.2 C 260.045 159.367 259.813 157.886 256.644 156.756 L 241.117 156.961 L 241.183 153.28 Z"
        />
        <path class="letter_m" transform="matrix(0.8 0 0 0.5 -21 32)"  d="M 364.93 153.512 L 365.029 156.677 L 361.172 156.776 C 359.126 157.701 358.499 157.964 357.706 159.745 C 357.277 160.709 357.55 161.527 357.409 162.912 L 357.393 246.141 C 357.482 247.856 359.283 249.862 361.467 250.214 L 365.131 250.201 L 365.118 253.471 L 340.181 253.381 L 340.091 250.214 L 345.25 250.112 C 347.156 249.192 347.191 248.504 348.315 247.124 L 347.952 168.68 L 346.793 168.651 L 327.026 253.243 L 324.144 253.447 L 305.37 170.432 L 303.992 170.455 L 304.239 246.004 C 304.141 247.685 305.3 248.913 307.304 250.097 L 311.025 250.28 L 311.025 253.571 L 293.856 253.549 L 293.812 250.178 L 297.906 250.054 C 299.623 249.005 299.759 249.251 300.663 247.215 L 300.846 160.933 C 300.771 158.445 299.285 156.856 296.797 156.78 L 293.156 156.78 L 293.133 153.49 L 310.167 153.474 L 326.902 232.101 L 328.184 232.129 L 346.367 153.496 L 364.93 153.512 Z"></path>

</svg>